<svg width="30" height="31" viewBox="0 0 30 31" fill="none" xmlns="http://www.w3.org/2000/svg">
<path fill-rule="evenodd" clip-rule="evenodd" d="M21.25 3C21.25 2.30964 20.6904 1.75 20 1.75C19.3096 1.75 18.75 2.30964 18.75 3V4.25H11.25V3C11.25 2.30964 10.6904 1.75 10 1.75C9.30964 1.75 8.75 2.30964 8.75 3V4.25H6.25C4.17893 4.25 2.5 5.92893 2.5 8V25.5C2.5 27.5711 4.17893 29.25 6.25 29.25H23.75C25.8211 29.25 27.5 27.5711 27.5 25.5V8C27.5 5.92893 25.8211 4.25 23.75 4.25H21.25V3ZM25 11.75V8C25 7.30964 24.4404 6.75 23.75 6.75H21.25V8C21.25 8.69036 20.6904 9.25 20 9.25C19.3096 9.25 18.75 8.69036 18.75 8V6.75H11.25V8C11.25 8.69036 10.6904 9.25 10 9.25C9.30964 9.25 8.75 8.69036 8.75 8V6.75H6.25C5.55964 6.75 5 7.30964 5 8V11.75H25ZM5 14.25H25V25.5C25 26.1904 24.4404 26.75 23.75 26.75H6.25C5.55964 26.75 5 26.1904 5 25.5V14.25Z" fill="#969696"/>
</svg>
